<svg width="142" height="50" viewBox="0 0 142 50" fill="none" xmlns="http://www.w3.org/2000/svg">
<path d="M30.4009 0.00242684C35.9394 0.00242684 41.476 -0.00303354 47.0145 0.00242684C53.8188 0.00970734 59.462 4.7475 60.634 11.4747C60.8091 12.483 60.8579 13.5278 60.8506 14.5543C60.8218 18.2528 60.9211 21.9495 60.7748 25.6517C60.6791 28.067 60.1157 30.273 58.8209 32.2678C56.2873 36.1684 52.822 38.5618 48.0799 38.8603C47.1174 38.9204 46.1603 38.9732 45.1978 38.9732C34.6031 38.9695 24.0102 38.9677 13.4154 38.9422C12.9044 38.9422 12.5468 39.1424 12.2055 39.4373C9.03631 42.182 5.87072 44.9304 2.71053 47.6879C2.17601 48.1539 1.65232 48.6817 0.883042 48.3632C0.090288 48.0356 0 47.2966 0 46.5322C0.00722327 35.2783 -0.00902799 24.0245 0.0180593 12.7688C0.0307 7.44857 4.42245 2.00639 9.78031 0.563029C11.1509 0.193543 12.5378 -0.00667002 13.968 0.000610486C19.445 0.0242721 24.9239 0.0097089 30.4009 0.0097089V0.00242684ZM50.5611 18.0581C50.5647 14.1976 47.484 11.1562 43.569 11.1543C39.7479 11.1525 36.7087 14.1175 36.7069 17.8524C36.7051 22.0223 39.6124 24.9618 43.7351 24.9545C47.4641 24.9491 50.5593 21.8239 50.5611 18.0581ZM10.313 18.029C10.3094 21.975 13.1807 24.8981 17.0126 24.9673C20.7452 25.0365 23.8603 22.1698 23.9831 18.0253C24.0968 14.2304 20.8879 11.1489 17.0541 11.1471C13.1915 11.1471 10.3166 14.0811 10.313 18.029Z" fill="url(#paint0_linear_461_10362)"/>
<path d="M78.0835 33.0409C76.8964 33.0409 75.792 32.838 74.7702 32.4323C73.7634 32.0116 72.8768 31.4256 72.1105 30.6742C71.3592 29.9229 70.7731 29.0514 70.3524 28.0596C69.9316 27.0529 69.7213 25.971 69.7213 24.8139C69.7213 23.6569 69.9316 22.5825 70.3524 21.5907C70.7731 20.584 71.3592 19.7124 72.1105 18.9761C72.8618 18.2398 73.7408 17.6688 74.7476 17.2631C75.7694 16.8424 76.8739 16.632 78.061 16.632C79.3232 16.632 80.4426 16.8349 81.4194 17.2406C82.4111 17.6463 83.2751 18.2023 84.0114 18.9085L81.6448 21.2977C81.224 20.8469 80.7131 20.4938 80.1121 20.2384C79.526 19.9829 78.8423 19.8552 78.061 19.8552C77.3697 19.8552 76.7311 19.9754 76.1451 20.2158C75.5741 20.4412 75.0782 20.7718 74.6575 21.2076C74.2517 21.6433 73.9287 22.1693 73.6883 22.7853C73.4629 23.4014 73.3502 24.0776 73.3502 24.8139C73.3502 25.5652 73.4629 26.2489 73.6883 26.865C73.9287 27.4811 74.2517 28.007 74.6575 28.4428C75.0782 28.8786 75.5741 29.2167 76.1451 29.4571C76.7311 29.6975 77.3697 29.8177 78.061 29.8177C78.8724 29.8177 79.5786 29.69 80.1797 29.4346C80.7807 29.1791 81.2992 28.826 81.7349 28.3752L84.1241 30.7644C83.3578 31.4706 82.4787 32.0266 81.487 32.4323C80.5103 32.838 79.3758 33.0409 78.0835 33.0409ZM91.0315 32.793L84.9007 16.88H88.6874L93.3531 29.7501H91.7978L96.5312 16.88H100.273L94.0743 32.793H91.0315ZM109.138 32.793V30.0431H112.88C113.571 30.0431 114.112 29.8403 114.503 29.4346C114.893 29.0288 115.089 28.533 115.089 27.9469C115.089 27.5412 114.998 27.1806 114.818 26.865C114.638 26.5495 114.382 26.3015 114.052 26.1212C113.736 25.9409 113.345 25.8507 112.88 25.8507H109.138V23.1685H112.587C113.173 23.1685 113.646 23.0258 114.007 22.7403C114.367 22.4397 114.548 21.9889 114.548 21.3879C114.548 20.8019 114.367 20.3661 114.007 20.0806C113.646 19.7801 113.173 19.6298 112.587 19.6298H109.138V16.88H113.263C114.285 16.88 115.149 17.0678 115.855 17.4434C116.576 17.8191 117.125 18.3225 117.5 18.9536C117.876 19.5847 118.064 20.2834 118.064 21.0498C118.064 22.0265 117.748 22.853 117.117 23.5292C116.486 24.2053 115.554 24.6712 114.322 24.9266L114.412 23.732C115.75 23.9875 116.779 24.5059 117.5 25.2873C118.237 26.0686 118.605 27.0303 118.605 28.1723C118.605 29.0439 118.387 29.8328 117.951 30.539C117.53 31.2302 116.914 31.7787 116.103 32.1844C115.306 32.5901 114.345 32.793 113.218 32.793H109.138ZM106.433 32.793V16.88H109.927V32.793H106.433ZM125.832 33.0409C124.705 33.0409 123.683 32.793 122.766 32.2971C121.865 31.7862 121.151 31.095 120.625 30.2234C120.099 29.3519 119.836 28.3752 119.836 27.2933C119.836 26.2114 120.099 25.2422 120.625 24.3857C121.151 23.5292 121.865 22.853 122.766 22.3571C123.668 21.8462 124.69 21.5907 125.832 21.5907C126.974 21.5907 127.995 21.8387 128.897 22.3346C129.799 22.8304 130.512 23.5141 131.038 24.3857C131.564 25.2422 131.827 26.2114 131.827 27.2933C131.827 28.3752 131.564 29.3519 131.038 30.2234C130.512 31.095 129.799 31.7862 128.897 32.2971C127.995 32.793 126.974 33.0409 125.832 33.0409ZM125.832 29.9079C126.327 29.9079 126.763 29.8027 127.139 29.5923C127.514 29.3669 127.8 29.0589 127.995 28.6682C128.206 28.2625 128.311 27.8042 128.311 27.2933C128.311 26.7824 128.206 26.3391 127.995 25.9634C127.785 25.5728 127.492 25.2722 127.116 25.0619C126.756 24.8365 126.327 24.7238 125.832 24.7238C125.351 24.7238 124.922 24.8365 124.547 25.0619C124.171 25.2722 123.878 25.5728 123.668 25.9634C123.457 26.3541 123.352 26.8049 123.352 27.3158C123.352 27.8117 123.457 28.2625 123.668 28.6682C123.878 29.0589 124.171 29.3669 124.547 29.5923C124.922 29.8027 125.351 29.9079 125.832 29.9079ZM134.879 32.793V17.3082H138.328V32.793H134.879ZM132.4 24.7688V21.8387H140.807V24.7688H132.4Z" fill="#111827"/>
<defs>
<linearGradient id="paint0_linear_461_10362" x1="58.1473" y1="34.3094" x2="2.50515" y2="3.82988" gradientUnits="userSpaceOnUse">
<stop stop-color="#2982FF"/>
<stop offset="1" stop-color="#86E5EC"/>
</linearGradient>
</defs>
</svg>
